<svg id="Layer_1" data-name="Layer 1" xmlns="http://www.w3.org/2000/svg" viewBox="0 0 49.34 49.34"><title>why-3</title><path d="M39.67,5.58l-.18,0V2.08a.88.88,0,0,0-.88-.88H1.84A.88.88,0,0,0,1,2.08V49.66a.88.88,0,0,0,.88.88H38.61a.88.88,0,0,0,.88-.88V40.49L44.6,43.9A.88.88,0,0,0,46,43.17V26.29l.07-.06A11.69,11.69,0,0,0,39.67,5.58ZM38.61,38a.89.89,0,0,0-.36.08l-.11,0L33,41.52v-14l.29.15a11.59,11.59,0,0,0,10.63,0l.29-.15V41.52L39.07,38.1,38.91,38A.87.87,0,0,0,38.61,38ZM9.21,22.83V15.94H27l0,.22c0,.35-.05.71-.05,1.06a11.55,11.55,0,0,0,1.29,5.31l.15.29Zm20.38-13A11.62,11.62,0,0,0,27.36,14l0,.15h-19a.88.88,0,0,0-.88.88v8.65a.88.88,0,0,0,.88.88h21.2l.06.07a12,12,0,0,0,1.57,1.57l.07.06V43.17a.88.88,0,0,0,1.37.73l5.12-3.41v8.28h-35V9.45H29.86Zm8.13-4.22-.18,0A11.66,11.66,0,0,0,31.9,7.65l-.05,0H2.72V3h35Zm-9,11.66a9.93,9.93,0,1,1,9.93,9.93A9.94,9.94,0,0,1,28.67,17.22Z" transform="translate(-0.96 -1.2)"/><path d="M43.81,17.22a5.21,5.21,0,1,0-5.21,5.21A5.21,5.21,0,0,0,43.81,17.22Zm-5.21-3.44a3.44,3.44,0,1,1-3.44,3.44A3.45,3.45,0,0,1,38.61,13.78Z" transform="translate(-0.96 -1.2)"/><path d="M8.33,31.08h17.3a.88.88,0,1,0,0-1.76H8.33a.88.88,0,1,0,0,1.76Z" transform="translate(-0.96 -1.2)"/><path d="M8.33,37.56h17.3a.88.88,0,1,0,0-1.76H8.33a.88.88,0,1,0,0,1.76Z" transform="translate(-0.96 -1.2)"/><path d="M8.33,44.05h17.3a.88.88,0,1,0,0-1.76H8.33a.88.88,0,1,0,0,1.76Z" transform="translate(-0.96 -1.2)"/></svg>