<svg id="Layer_1" data-name="Layer 1" xmlns="http://www.w3.org/2000/svg" viewBox="0 0 37.13 50.02"><title>why-1</title><path d="M6.4,21a1,1,0,1,1-1-1A1,1,0,0,1,6.4,21Z" transform="translate(-0.54 -0.75)"/><path d="M18.56,50.61a1,1,0,0,0,1.08,0l8.89-5.92a20.48,20.48,0,0,0,9.14-17.07v-20A1,1,0,0,0,37,6.69L19.42.8a1,1,0,0,0-.62,0L1.21,6.69a1,1,0,0,0-.67.93v20A20.48,20.48,0,0,0,9.68,44.69ZM2.5,27.61V8.32L19.11,2.76,35.72,8.32V27.61a18.53,18.53,0,0,1-8.27,15.45l-8.34,5.56-8.34-5.56A18.53,18.53,0,0,1,2.5,27.61Z" transform="translate(-0.54 -0.75)"/><path d="M18.56,45.91a1,1,0,0,0,1.08,0l6.72-4.48a16.58,16.58,0,0,0,7.4-13.82V10.43a1,1,0,0,0-.67-.93L19.42,4.92a1,1,0,0,0-.62,0L5.12,9.51a1,1,0,0,0-.67.93v6.63a1,1,0,0,0,2,0V11.14l12.7-4.26,12.7,4.26V27.62a14.62,14.62,0,0,1-6.53,12.19l-6.18,4.12-6.18-4.12A14.62,14.62,0,0,1,6.4,27.62V24.88a1,1,0,1,0-2,0v2.73a16.57,16.57,0,0,0,7.4,13.82Z" transform="translate(-0.54 -0.75)"/><path d="M15.08,32.82a2.93,2.93,0,0,0,4.14,0L27,25a2.93,2.93,0,0,0-4.14-4.14L17.15,26.6l-1.84-1.84a2.93,2.93,0,0,0-4.14,4.14Zm-2.53-6.67a1,1,0,0,1,1.38,0l2.53,2.53a1,1,0,0,0,1.38,0l6.43-6.43a1,1,0,1,1,1.38,1.38l-7.82,7.82a1,1,0,0,1-1.38,0l-3.91-3.91A1,1,0,0,1,12.55,26.15Z" transform="translate(-0.54 -0.75)"/></svg>