<svg id="Layer_1" data-name="Layer 1" xmlns="http://www.w3.org/2000/svg" viewBox="0 0 49.55 46.71"><title>why-5</title><path d="M46.15,19.3h-.83a20.24,20.24,0,0,0-6-8.25v0a5.52,5.52,0,0,1,.89-4.53,2.57,2.57,0,0,0,.07-2.65A2.61,2.61,0,0,0,38.05,2.5l-.33,0a10.85,10.85,0,0,0-7.37,3.8,26.44,26.44,0,0,0-7-.94A24.74,24.74,0,0,0,7,11.32,19.18,19.18,0,0,0,.14,25.83a18,18,0,0,0,.5,4.23.19.19,0,0,0,0,.07.33.33,0,0,1,0,.06,19,19,0,0,0,1.52,4.07,21.14,21.14,0,0,0,3.9,5.9,9.44,9.44,0,0,1,2.52,6v.64a.63.63,0,0,0,0,.14,2.48,2.48,0,0,0,2.46,2.23h7.62a2.48,2.48,0,0,0,2.47-2.47v-.51a27.85,27.85,0,0,0,3.58.05v.47a2.48,2.48,0,0,0,2.47,2.47h7.62a2.48,2.48,0,0,0,2.47-2.47V44.87a6.32,6.32,0,0,1,2.16-4.33l.29-.25,0,0,.07-.06a20.22,20.22,0,0,0,5.57-8.13h.72a3.54,3.54,0,0,0,3.53-3.53V22.87A3.56,3.56,0,0,0,46.15,19.3Zm1.07,9.21a1.07,1.07,0,0,1-1.07,1.07h-1.6a1.23,1.23,0,0,0-1.18.87,17.66,17.66,0,0,1-5.2,7.93l0,0h0l-.28.25,0,0a8.77,8.77,0,0,0-3,6.12v1.91a0,0,0,0,1,0,0H27.23a0,0,0,0,1,0,0V44.92A1.2,1.2,0,0,0,26.8,44a1.23,1.23,0,0,0-.82-.32h-.13a23.22,23.22,0,0,1-2.53.13,24,24,0,0,1-3.21-.21,1.21,1.21,0,0,0-1,.3,1.24,1.24,0,0,0-.42.92v1.87a0,0,0,0,1,0,0H11.08a0,0,0,0,1,0,0h0v-.62a11.89,11.89,0,0,0-3.21-7.64A18.93,18.93,0,0,1,4.4,33.21s0,0,0,0A16.38,16.38,0,0,1,3,29.6s0,0,0,0v0a15.66,15.66,0,0,1-.44-3.7c0-9.92,9.31-18,20.74-18a23.55,23.55,0,0,1,7.1,1.08,1.23,1.23,0,0,0,1.39-.48A8.33,8.33,0,0,1,38,5a.15.15,0,0,1,.15.08.13.13,0,0,1,0,.15A8,8,0,0,0,37,11.71s0,0,0,0a1.21,1.21,0,0,0,.46.92,17.83,17.83,0,0,1,5.83,8.25,1.23,1.23,0,0,0,1.17.85h1.69a1.07,1.07,0,0,1,1.07,1.07v5.67Z" transform="translate(-0.14 -2.5)"/><path d="M24.67,24.6H21.92a1.78,1.78,0,1,1,0-3.56h4.85a1.23,1.23,0,0,0,0-2.45H24.53V16.94a1.23,1.23,0,0,0-2.45,0v1.65h-.14a4.23,4.23,0,0,0,0,8.47h2.74a1.78,1.78,0,1,1,0,3.56H19.75a1.23,1.23,0,0,0,0,2.45h2.33v1.68a1.23,1.23,0,1,0,2.45,0V33.07h.2a4.23,4.23,0,0,0-.07-8.47Z" transform="translate(-0.14 -2.5)"/></svg>